<svg xmlns="http://www.w3.org/2000/svg"  viewBox="0 0 100 100" width="100px" height="100px" fill-rule="evenodd" clip-rule="evenodd"><path fill="#c7ede6" d="M87.215,56.71C88.35,54.555,89,52.105,89,49.5c0-6.621-4.159-12.257-10.001-14.478	C78.999,35.015,79,35.008,79,35c0-11.598-9.402-21-21-21c-9.784,0-17.981,6.701-20.313,15.757C36.211,29.272,34.638,29,33,29	c-7.692,0-14.023,5.793-14.89,13.252C12.906,43.353,9,47.969,9,53.5C9,59.851,14.149,65,20.5,65c0.177,0,0.352-0.012,0.526-0.022	C21.022,65.153,21,65.324,21,65.5C21,76.822,30.178,86,41.5,86c6.437,0,12.175-2.972,15.934-7.614C59.612,80.611,62.64,82,66,82	c4.65,0,8.674-2.65,10.666-6.518C77.718,75.817,78.837,76,80,76c6.075,0,11-4.925,11-11C91,61.689,89.53,58.727,87.215,56.71z"/><path fill="#fff" d="M19.405,44H9.5C9.224,44,9,43.776,9,43.5S9.224,43,9.5,43h9.905c0.276,0,0.5,0.224,0.5,0.5	S19.682,44,19.405,44z"/><path fill="#fff" d="M22.5,44h-1c-0.276,0-0.5-0.224-0.5-0.5s0.224-0.5,0.5-0.5h1c0.276,0,0.5,0.224,0.5,0.5	S22.777,44,22.5,44z"/><path fill="#fff" d="M27.491,46H18.5c-0.276,0-0.5-0.224-0.5-0.5s0.224-0.5,0.5-0.5h8.991c0.276,0,0.5,0.224,0.5,0.5	S27.767,46,27.491,46z"/><path fill="#fff" d="M16.5,46h-1c-0.276,0-0.5-0.224-0.5-0.5s0.224-0.5,0.5-0.5h1c0.276,0,0.5,0.224,0.5,0.5	S16.777,46,16.5,46z"/><path fill="#fff" d="M13.5,46h-2c-0.276,0-0.5-0.224-0.5-0.5s0.224-0.5,0.5-0.5h2c0.276,0,0.5,0.224,0.5,0.5	S13.777,46,13.5,46z"/><path fill="#fff" d="M19.5,48h-2c-0.276,0-0.5-0.224-0.5-0.5s0.224-0.5,0.5-0.5h2c0.276,0,0.5,0.224,0.5,0.5	S19.776,48,19.5,48z"/><path fill="#fff" d="M22.5,39c-0.177,0-0.823,0-1,0c-0.276,0-0.5,0.224-0.5,0.5s0.224,0.5,0.5,0.5c0.177,0,0.823,0,1,0	c0.276,0,0.5-0.224,0.5-0.5S22.776,39,22.5,39z"/><path fill="#fff" d="M22.5,41c-0.177,0-4.823,0-5,0c-0.276,0-0.5,0.224-0.5,0.5s0.224,0.5,0.5,0.5c0.177,0,4.823,0,5,0	c0.276,0,0.5-0.224,0.5-0.5S22.776,41,22.5,41z"/><path fill="#fff" d="M27.5,43c-0.177,0-2.823,0-3,0c-0.276,0-0.5,0.224-0.5,0.5s0.224,0.5,0.5,0.5c0.177,0,2.823,0,3,0	c0.276,0,0.5-0.224,0.5-0.5S27.776,43,27.5,43z"/><path fill="#fff" d="M84.5,65h-10c-0.276,0-0.5-0.224-0.5-0.5s0.224-0.5,0.5-0.5h10c0.276,0,0.5,0.224,0.5,0.5	S84.776,65,84.5,65z"/><path fill="#fff" d="M88.5,65h-2c-0.276,0-0.5-0.224-0.5-0.5s0.224-0.5,0.5-0.5h2c0.276,0,0.5,0.224,0.5,0.5	S88.776,65,88.5,65z"/><path fill="#fff" d="M93.5,67h-10c-0.276,0-0.5-0.224-0.5-0.5s0.224-0.5,0.5-0.5h10c0.276,0,0.5,0.224,0.5,0.5	S93.777,67,93.5,67z"/><path fill="#fff" d="M81.5,67h-1c-0.276,0-0.5-0.224-0.5-0.5s0.224-0.5,0.5-0.5h1c0.276,0,0.5,0.224,0.5,0.5	S81.776,67,81.5,67z"/><path fill="#fff" d="M78.47,67H76.5c-0.276,0-0.5-0.224-0.5-0.5s0.224-0.5,0.5-0.5h1.97c0.276,0,0.5,0.224,0.5,0.5	S78.746,67,78.47,67z"/><path fill="#fff" d="M87.5,63h-5c-0.276,0-0.5-0.224-0.5-0.5s0.224-0.5,0.5-0.5h5c0.276,0,0.5,0.224,0.5,0.5	S87.777,63,87.5,63z"/><path fill="#fff" d="M84.5,69h-2c-0.276,0-0.5-0.224-0.5-0.5s0.224-0.5,0.5-0.5h2c0.276,0,0.5,0.224,0.5,0.5	S84.776,69,84.5,69z"/><path fill="#fdfcef" d="M72.875,41.5c0,0-3.64,0-6.125,0s-4.5-2.015-4.5-4.5c0-2.333,1.782-4.229,4.055-4.455	C66.283,32.364,66.25,32.187,66.25,32c0-2.485,2.015-4.5,4.5-4.5c1.438,0,2.703,0.686,3.527,1.736	c0.14-2.636,2.302-4.736,4.973-4.736c2.761,0,5,2.239,5,5c0,0.446-0.077,0.87-0.187,1.282c0.642-0.777,1.6-1.282,2.687-1.282	c1.781,0,3.234,1.335,3.455,3.055c0.181-0.022,0.358-0.055,0.545-0.055c2.485,0,4.5,2.015,4.5,4.5s-2.015,4.5-4.5,4.5s-9.5,0-9.5,0	h-5.375V42h-3V41.5z"/><path fill="#472b29" d="M79.25,24c3.033,0,5.5,2.467,5.5,5.5c0,0.016,0,0.031,0,0.047c0.602-0.354,1.29-0.547,2-0.547	c1.831,0,3.411,1.261,3.858,3.005C90.655,32.002,90.702,32,90.75,32c2.757,0,5,2.243,5,5s-2.243,5-5,5H75.875	c-0.276,0-0.5-0.224-0.5-0.5s0.224-0.5,0.5-0.5H90.75c2.206,0,4-1.794,4-4s-1.794-4-4-4c-0.117,0-0.23,0.017-0.343,0.032	l-0.141,0.019c-0.021,0.003-0.041,0.004-0.062,0.004c-0.246,0-0.462-0.185-0.495-0.437C89.518,31.125,88.246,30,86.75,30	c-0.885,0-1.723,0.401-2.301,1.1c-0.098,0.118-0.241,0.182-0.386,0.182c-0.078,0-0.156-0.018-0.228-0.056	c-0.209-0.107-0.314-0.346-0.254-0.573c0.116-0.436,0.17-0.802,0.17-1.153c0-2.481-2.019-4.5-4.5-4.5	c-2.381,0-4.347,1.872-4.474,4.263c-0.011,0.208-0.15,0.387-0.349,0.45c-0.05,0.016-0.101,0.024-0.152,0.024	c-0.15,0-0.296-0.069-0.392-0.192C73.112,28.563,71.971,28,70.75,28c-2.206,0-4,1.794-4,4c0,0.117,0.017,0.23,0.032,0.343	l0.019,0.141c0.016,0.134-0.022,0.268-0.106,0.373s-0.207,0.172-0.34,0.185C64.299,33.247,62.75,34.949,62.75,37	c0,2.206,1.794,4,4,4h6.125c0.276,0,0.5,0.224,0.5,0.5s-0.224,0.5-0.5,0.5H66.75c-2.757,0-5-2.243-5-5	c0-2.397,1.689-4.413,4.003-4.877C65.751,32.082,65.75,32.041,65.75,32c0-2.757,2.243-5,5-5c1.176,0,2.293,0.416,3.183,1.164	C74.531,25.76,76.695,24,79.25,24L79.25,24z"/><path fill="#472b29" d="M80.75,31c1.403,0,2.609,0.999,2.913,2.341C84.03,33.119,84.449,33,84.875,33	c1.202,0,2.198,0.897,2.353,2.068C87.431,35.022,87.624,35,87.813,35c1.529,0,2.811,1.2,2.918,2.732	C90.74,37.87,90.636,37.99,90.499,38c-0.006,0-0.012,0-0.018,0c-0.13,0-0.24-0.101-0.249-0.232	c-0.089-1.271-1.151-2.268-2.419-2.268c-0.229,0-0.47,0.042-0.738,0.127c-0.022,0.007-0.045,0.01-0.067,0.01	c-0.055,0-0.11-0.02-0.156-0.054c-0.064-0.047-0.102-0.129-0.102-0.209c0-1.034-0.841-1.875-1.875-1.875	c-0.447,0-0.885,0.168-1.231,0.473c-0.047,0.041-0.106,0.063-0.165,0.063c-0.032,0-0.063-0.006-0.093-0.019	c-0.088-0.035-0.148-0.117-0.155-0.212c-0.102-1.292-1.191-2.305-2.479-2.305c-0.208,0-0.425,0.034-0.682,0.107	c-0.023,0.007-0.047,0.01-0.07,0.01c-0.109,0-0.207-0.073-0.239-0.182c-0.038-0.133,0.039-0.271,0.172-0.309	C80.233,31.04,80.494,31,80.75,31L80.75,31z"/><rect width="38" height="5.86" x="31" y="61.64" fill="#fff"/><rect width="37" height="7" x="31.5" y="67.5" fill="#c29b67" fill-rule="evenodd" clip-rule="evenodd"/><path fill="#422f2d" d="M68.065,61.64l-0.387,11.384c-0.013,0.323-0.276,0.576-0.6,0.576H32.922	c-0.323,0-0.587-0.253-0.6-0.574L31.935,61.5H30.5l0.423,11.58c0.043,1.073,0.925,1.92,1.999,1.92h34.157	c1.073,0,1.956-0.847,1.999-1.92L69.5,61.5L68.065,61.64z"/><line x1="32" x2="68" y1="67.5" y2="67.5" fill="none" stroke="#422f2d" stroke-linecap="round" stroke-linejoin="round" stroke-miterlimit="10"/><line x1="35" x2="38" y1="70.5" y2="70.5" fill="none" stroke="#422f2d" stroke-linecap="round" stroke-linejoin="round" stroke-miterlimit="10"/><line x1="41" x2="44" y1="70.5" y2="70.5" fill="none" stroke="#422f2d" stroke-linecap="round" stroke-linejoin="round" stroke-miterlimit="10"/><line x1="62" x2="65" y1="70.5" y2="70.5" fill="none" stroke="#422f2d" stroke-linecap="round" stroke-linejoin="round" stroke-miterlimit="10"/><line x1="55" x2="58" y1="70.5" y2="70.5" fill="none" stroke="#422f2d" stroke-linecap="round" stroke-linejoin="round" stroke-miterlimit="10"/><polyline fill="#cd4054" stroke="#422f2d" stroke-linecap="round" stroke-linejoin="round" stroke-miterlimit="10" stroke-width=".5" points="51.239,64.532 52.5,68.5 50,71.5 47.5,68.5 48.761,64.532"/><polygon fill="#cd4054" points="49,61.5 47.053,63.053 48.431,64.371 51.57,64.371 52.947,63.053 51.357,61.5"/><path fill="#fff" stroke="#422f2d" stroke-linecap="round" stroke-linejoin="round" stroke-miterlimit="10" stroke-width=".5" d="M49,61.5c0,0-3.5,4-4.5,4s-5-4-5-4H49z"/><path fill="#fff" stroke="#422f2d" stroke-linecap="round" stroke-linejoin="round" stroke-miterlimit="10" stroke-width=".5" d="M51,61.5c0,0,3.5,4,4.5,4s5-4,5-4H51z"/><path fill="none" stroke="#422f2d" stroke-linecap="round" stroke-linejoin="round" stroke-miterlimit="10" stroke-width=".5" d="M47.312,63.312l0.895,0.895c0.188,0.188,0.442,0.293,0.707,0.293h2.172c0.265,0,0.52-0.105,0.707-0.293l0.887-0.887"/><path fill="#fbcd59" d="M68,61.911C66.142,61.667,65.656,61,63.003,61c-3.249,0-3.249,1-6.498,1c-3.247,0-3.247-1-6.495-1	c-3.25,0-3.25,1-6.5,1c-3.252,0-3.252-1-6.505-1c-2.657,0-3.143,0.667-5.005,0.912c-0.107,0.014-0.296,0.027-0.516,0.038	c-0.84,0.042-1.548-0.626-1.548-1.467l0,0c-0.234-3.045,0.763-3.122,0.529-6.167c-0.234-3.046-1.231-2.969-1.466-6.015	c-0.234-3.044,0.763-3.121,0.529-6.165c-0.234-3.047-1.231-2.97-1.466-6.017c-0.235-3.049,0.763-3.126,0.528-6.175	c-0.151-1.966-0.463-2.807-0.728-3.974c-0.262-1.154,0.72-2.213,1.893-2.057l0.014,0.002c1.929,0.252,2.474,0.901,5.282,0.901	c3.486,0,4.486-1,7.971-1c3.484,0,3.484,1,6.967,1h0.022c3.484,0,3.484-1,6.967-1c3.486,0,4.486,1,7.971,1	c2.808,0,3.353-0.649,5.282-0.901l0.014-0.002c1.173-0.156,2.155,0.903,1.893,2.057c-0.265,1.167-0.577,2.009-0.728,3.974	c-0.235,3.049,0.763,3.126,0.528,6.175c-0.234,3.047-1.231,2.97-1.466,6.017c-0.234,3.044,0.763,3.121,0.529,6.165	c-0.234,3.046-1.231,2.969-1.466,6.015c-0.234,3.045,0.763,3.122,0.529,6.167l0,0c-0.017,0.845-0.733,1.509-1.578,1.465	C68.28,61.937,68.103,61.925,68,61.911z"/><path fill="none" stroke="#422f2d" stroke-linecap="round" stroke-linejoin="round" stroke-miterlimit="10" stroke-width="1.4" d="M68,61.911c-1.858-0.245-1.848-0.411-4.5-0.411c-3.249,0-3.751,1-7,1c-3.247,0-3.253-1-6.5-1c-3.25,0-3.25,1-6.5,1	c-3.252,0-2.748-1-6-1c-2.657,0-3.638,0.167-5.5,0.412c-0.107,0.014-0.296,0.027-0.516,0.038c-0.84,0.042-1.548-0.626-1.548-1.467	l0,0c-0.234-3.045,0.763-3.122,0.529-6.167c-0.234-3.046-1.231-2.969-1.466-6.015c-0.234-3.044,0.763-3.121,0.529-6.165	c-0.234-3.047-1.231-2.97-1.466-6.017c-0.235-3.049,0.763-3.126,0.528-6.175c-0.151-1.966-0.463-2.807-0.728-3.974	c-0.262-1.154,0.72-2.213,1.893-2.057l0.014,0.002c1.929,0.252,2.474,0.901,5.282,0.901c3.486,0,4.486-1,7.971-1	c3.484,0,3.484,1,6.967,1h0.022c3.484,0,3.484-1,6.967-1c3.486,0,4.486,1,7.971,1c2.808,0,3.353-0.649,5.282-0.901l0.014-0.002	c1.173-0.156,2.155,0.903,1.893,2.057c-0.265,1.167-0.577,2.009-0.728,3.974c-0.235,3.049,0.763,3.126,0.528,6.175	c-0.234,3.047-1.231,2.97-1.466,6.017c-0.234,3.044,0.763,3.121,0.529,6.165c-0.234,3.046-1.231,2.969-1.466,6.015	c-0.234,3.045,0.763,3.122,0.529,6.167l0,0c-0.017,0.845-0.733,1.509-1.578,1.465C68.28,61.937,68.103,61.925,68,61.911z"/><path fill="#fff" d="M50,36.923c0-3.696,2.996-6.692,6.692-6.692s6.692,2.996,6.692,6.692c0,1.06-0.246,2.062-0.685,2.953	c0,0-1.055,0.236-1.46,0.688c-0.355,0.397-0.756,1.875-0.756,1.875c-1.078,0.742-2.384,1.177-3.791,1.177	c-1.728,0-3.303-0.655-4.491-1.73c0,0-0.113-1.371-0.425-1.847c-0.286-0.435-1.382-0.848-1.382-0.848	C50.139,38.482,50,37.719,50,36.923z"/><path fill="#fff" d="M50,36.923c0-3.696-2.996-6.692-6.692-6.692s-6.692,2.996-6.692,6.692	c0,1.06,0.246,2.062,0.685,2.953c0,0,1.055,0.236,1.46,0.688c0.355,0.397,0.756,1.875,0.756,1.875	c1.078,0.742,2.384,1.177,3.791,1.177c1.728,0,3.303-0.655,4.491-1.73c0,0,0.113-1.371,0.425-1.847	c0.286-0.435,1.382-0.848,1.382-0.848C49.861,38.482,50,37.719,50,36.923z"/><path fill="none" stroke="#422f2d" stroke-linecap="round" stroke-linejoin="round" stroke-miterlimit="10" stroke-width=".5" d="M37.284,39.842c-0.428-0.882-0.668-1.873-0.668-2.919c0-3.696,2.996-6.692,6.692-6.692S50,33.227,50,36.923	c0,0.796-0.139,1.559-0.394,2.267"/><path fill="none" stroke="#422f2d" stroke-linecap="round" stroke-linejoin="round" stroke-miterlimit="10" stroke-width=".5" d="M47.814,41.871c-1.189,1.084-2.771,1.745-4.506,1.745c-1.408,0-2.715-0.435-3.793-1.178"/><path fill="none" stroke="#422f2d" stroke-linecap="round" stroke-linejoin="round" stroke-miterlimit="10" stroke-width=".5" d="M60.484,42.439c-1.078,0.742-2.384,1.177-3.791,1.177c-1.728,0-3.303-0.655-4.491-1.731"/><path fill="none" stroke="#422f2d" stroke-linecap="round" stroke-linejoin="round" stroke-miterlimit="10" stroke-width=".5" d="M50.394,39.19C50.139,38.482,50,37.719,50,36.923c0-3.696,2.996-6.692,6.692-6.692s6.692,2.996,6.692,6.692	c0,1.06-0.246,2.062-0.685,2.953"/><path fill="none" stroke="#422f2d" stroke-linecap="round" stroke-linejoin="round" stroke-miterlimit="10" stroke-width=".5" d="M48.481,43.616c-0.438-0.699-0.712-1.586-0.712-2.232c0-1.232,0.999-2.231,2.231-2.231s2.231,0.999,2.231,2.231	c0,0.161-0.017,0.338-0.05,0.523c-0.098,0.555-0.334,1.185-0.662,1.709"/><polygon fill="#422f2d" points="49.899,38.515 49.696,39.097 50.315,39.124 50.091,38.515"/><path fill="none" stroke="#422f2d" stroke-linecap="round" stroke-linejoin="round" stroke-miterlimit="10" stroke-width=".5" d="M60.758,43.616c-0.41-0.913-0.374-1.938,0.192-2.721c0.902-1.248,2.809-1.411,4.259-0.363c1.451,1.048,1.895,2.909,0.994,4.158	c-0.121,0.168-0.261,0.317-0.415,0.445"/><path fill="none" stroke="#422f2d" stroke-linecap="round" stroke-linejoin="round" stroke-miterlimit="10" stroke-width=".5" d="M39.242,43.616c0.41-0.913,0.374-1.938-0.192-2.721c-0.902-1.248-2.809-1.411-4.259-0.363c-1.451,1.048-1.895,2.909-0.994,4.158	c0.121,0.168,0.261,0.317,0.415,0.445"/><circle cx="56.692" cy="37.481" r="2.788" fill="#77cbd2"/><circle cx="43.308" cy="37.481" r="2.788" fill="#77cbd2"/><circle cx="56.692" cy="37.481" r="2.788" fill="none" stroke="#422f2d" stroke-linecap="round" stroke-linejoin="round" stroke-miterlimit="10" stroke-width=".5"/><circle cx="56.692" cy="37.481" r="1.115" fill="#422f2d" stroke="#422f2d" stroke-linecap="round" stroke-linejoin="round" stroke-miterlimit="10" stroke-width=".5"/><circle cx="43.308" cy="37.481" r="2.788" fill="none" stroke="#422f2d" stroke-linecap="round" stroke-linejoin="round" stroke-miterlimit="10" stroke-width=".5"/><circle cx="43.308" cy="37.481" r="1.115" fill="#422f2d" stroke="#422f2d" stroke-linecap="round" stroke-linejoin="round" stroke-miterlimit="10" stroke-width=".5"/><line x1="56.692" x2="56.692" y1="30.231" y2="28" fill="none" stroke="#422f2d" stroke-linecap="round" stroke-linejoin="round" stroke-miterlimit="10" stroke-width=".5"/><line x1="59.706" x2="60.851" y1="30.946" y2="29.311" fill="none" stroke="#422f2d" stroke-linecap="round" stroke-linejoin="round" stroke-miterlimit="10" stroke-width=".5"/><line x1="53.679" x2="52.534" y1="30.946" y2="29.311" fill="none" stroke="#422f2d" stroke-linecap="round" stroke-linejoin="round" stroke-miterlimit="10" stroke-width=".5"/><line x1="43.308" x2="43.308" y1="30.231" y2="28" fill="none" stroke="#422f2d" stroke-linecap="round" stroke-linejoin="round" stroke-miterlimit="10" stroke-width=".5"/><line x1="40.294" x2="39.149" y1="30.946" y2="29.311" fill="none" stroke="#422f2d" stroke-linecap="round" stroke-linejoin="round" stroke-miterlimit="10" stroke-width=".5"/><line x1="46.321" x2="47.466" y1="30.946" y2="29.311" fill="none" stroke="#422f2d" stroke-linecap="round" stroke-linejoin="round" stroke-miterlimit="10" stroke-width=".5"/><path fill="none" stroke="#422f2d" stroke-linecap="round" stroke-linejoin="round" stroke-miterlimit="10" stroke-width=".5" d="M36.424,44.295c0.191-0.679,0.918-1.062,1.448-1.062"/><path fill="#422f2d" d="M50,57c11.154,0,12.827-13.385,12.827-13.385S57.808,48.077,50,48.077s-12.827-4.462-12.827-4.462	S38.846,57,50,57z"/><path fill="#cd4054" d="M56.155,55.163c-0.507-1.026-1.805-1.467-3.362-1.467c-0.845,0-2.178,0.299-2.794,0.661	c-0.615-0.362-1.724-0.658-2.569-0.658c-1.562,0-3.057,0.435-3.559,1.468c0,0,2.443,1.834,6.128,1.834	C53.685,57,56.155,55.163,56.155,55.163z"/><path fill="#fff" d="M48.885,48.077v2.846c0,0.276-0.224,0.5-0.5,0.5h-2.346c-0.276,0-0.5-0.224-0.5-0.5v-3.222	L48.885,48.077z"/><path fill="#fff" d="M51.115,48.077v2.846c0,0.276,0.224,0.5,0.5,0.5h2.346c0.276,0,0.5-0.224,0.5-0.5v-3.222	L51.115,48.077z"/><path fill="none" stroke="#422f2d" stroke-linecap="round" stroke-linejoin="round" stroke-miterlimit="10" stroke-width=".5" d="M50,57c11.154,0,12.827-13.385,12.827-13.385S57.808,48.077,50,48.077s-12.827-4.462-12.827-4.462S38.846,57,50,57z"/><path fill="none" stroke="#422f2d" stroke-linecap="round" stroke-linejoin="round" stroke-miterlimit="10" stroke-width=".5" d="M48.885,48.077v2.846c0,0.276-0.224,0.5-0.5,0.5h-2.346c-0.276,0-0.5-0.224-0.5-0.5v-3.222"/><path fill="none" stroke="#422f2d" stroke-linecap="round" stroke-linejoin="round" stroke-miterlimit="10" stroke-width=".5" d="M51.115,48.077v2.846c0,0.276,0.224,0.5,0.5,0.5h2.346c0.276,0,0.5-0.224,0.5-0.5v-3.222"/><path fill="none" stroke="#422f2d" stroke-linecap="round" stroke-linejoin="round" stroke-miterlimit="10" stroke-width=".5" d="M43.872,55.166L44,54.961c0.197-0.294,0.561-0.541,0.981-0.745c1.392-0.675,3.019-0.665,4.463-0.111	c0.226,0.087,0.422,0.173,0.556,0.251c0.133-0.078,0.328-0.164,0.553-0.25c1.442-0.554,3.067-0.563,4.458,0.109	c0.421,0.203,0.788,0.45,0.989,0.743l0.155,0.205"/><path fill="none" stroke="#422f2d" stroke-linecap="round" stroke-linejoin="round" stroke-miterlimit="10" stroke-width=".5" d="M63.576,44.295c-0.191-0.679-0.918-1.062-1.448-1.062"/><ellipse cx="33.768" cy="30.335" fill="#eab436" rx="3.195" ry="1.884" transform="rotate(-55 33.766 30.333)"/><ellipse cx="36.769" cy="56.335" fill="#eab436" rx="3.195" ry="1.884" transform="rotate(-55 36.767 56.332)"/><ellipse cx="65.769" cy="51.334" fill="#eab436" rx="3.195" ry="1.884" transform="rotate(-55 65.766 51.331)"/><ellipse cx="66.732" cy="31.458" fill="#eab436" rx="2.499" ry="1.352" transform="rotate(-55 66.728 31.456)"/><ellipse cx="33.003" cy="36.999" fill="#eab436" rx="1.966" ry="1.065" transform="rotate(-55 33 36.997)"/><ellipse cx="35.003" cy="51" fill="#eab436" rx="1.966" ry="1.065" transform="rotate(-55 35.001 50.997)"/><ellipse cx="61.004" cy="56.998" fill="#eab436" rx="1.966" ry="1.065" transform="rotate(-55 61 56.995)"/><path fill="#fdfcef" d="M15.375,77.5c0,0-1.567,0-3.5,0s-3.5-1.567-3.5-3.5c0-1.781,1.335-3.234,3.055-3.455	c-0.028-0.179-0.055-0.358-0.055-0.545c0-1.933,1.567-3.5,3.5-3.5c1.032,0,1.95,0.455,2.59,1.165	c0.384-1.808,1.987-3.165,3.91-3.165c2.209,0,4,1.791,4,4c0,0.191-0.03,0.374-0.056,0.558c0.428-0.344,0.965-0.558,1.556-0.558	c1.228,0,2.245,0.887,2.455,2.055c0.179-0.028,0.358-0.055,0.545-0.055c1.933,0,3.5,1.567,3.5,3.5s-1.567,3.5-3.5,3.5s-7.5,0-7.5,0	V78h-7V77.5z"/><path fill="#472b29" d="M13.625,73c0.138,0,0.25-0.112,0.25-0.25c0-1.223-0.995-2.218-2.218-2.218	c-0.034,0.009-0.737-0.001-1.244,0.136c-0.133,0.036-0.212,0.173-0.176,0.306c0.036,0.134,0.173,0.213,0.306,0.176	c0.444-0.12,1.1-0.12,1.113-0.118c0.948,0,1.719,0.771,1.719,1.718C13.375,72.888,13.487,73,13.625,73z"/><circle cx="20.375" cy="77.5" r=".5" fill="#472b29"/><path fill="#472b29" d="M11.875,78h3.5c0.276,0,0.5-0.224,0.5-0.5s-0.224-0.5-0.5-0.5h-3.5c-1.654,0-3-1.346-3-3	c0-1.496,1.125-2.768,2.618-2.959c0.134-0.018,0.255-0.088,0.336-0.196s0.115-0.244,0.094-0.377C11.9,70.314,11.875,70.16,11.875,70	c0-1.654,1.346-3,3-3c0.85,0,1.638,0.355,2.219,1c0.125,0.139,0.321,0.198,0.5,0.148c0.182-0.049,0.321-0.195,0.36-0.379	C18.295,66.165,19.734,65,21.375,65c1.93,0,3.5,1.57,3.5,3.5c0,0.143-0.021,0.28-0.041,0.418c-0.029,0.203,0.063,0.438,0.242,0.54	s0.396,0.118,0.556-0.01C25.997,69.155,26.426,69,26.875,69c0.966,0,1.792,0.691,1.963,1.644c0.048,0.267,0.296,0.446,0.569,0.405	C29.561,71.025,29.715,71,29.875,71c1.654,0,3,1.346,3,3s-1.346,3-3,3h-7.5c-0.276,0-0.5,0.224-0.5,0.5s0.224,0.5,0.5,0.5h7.5	c2.206,0,4-1.794,4-4s-1.794-4-4-4c-0.059,0-0.116,0.002-0.174,0.006C29.287,68.82,28.164,68,26.875,68	c-0.349,0-0.689,0.061-1.011,0.18C25.699,65.847,23.749,64,21.375,64c-1.831,0-3.466,1.127-4.153,2.774	C16.542,66.276,15.72,66,14.875,66c-2.206,0-4,1.794-4,4c0,0.048,0.001,0.095,0.004,0.142C9.136,70.59,7.875,72.169,7.875,74	C7.875,76.206,9.669,78,11.875,78z"/><path fill="#472b29" d="M17.375,77c0.159,0,0.841,0,1,0c0.276,0,0.5,0.224,0.5,0.5s-0.224,0.5-0.5,0.5c-0.159,0-0.841,0-1,0	c-0.276,0-0.5-0.224-0.5-0.5S17.099,77,17.375,77z"/></svg>